<?xml version="1.0" encoding="UTF-8" standalone="no"?>
<svg
   xmlns:dc="http://purl.org/dc/elements/1.1/"
   xmlns:cc="http://creativecommons.org/ns#"
   xmlns:rdf="http://www.w3.org/1999/02/22-rdf-syntax-ns#"
   xmlns:svg="http://www.w3.org/2000/svg"
   xmlns="http://www.w3.org/2000/svg"
   xmlns:sodipodi="http://sodipodi.sourceforge.net/DTD/sodipodi-0.dtd"
   xmlns:inkscape="http://www.inkscape.org/namespaces/inkscape"
   height="488pt"
   viewBox="0 0 488 488"
   width="488pt"
   version="1.1"
   id="svg5380"
   sodipodi:docname="logo.svg"
   inkscape:version="0.92.4 (unknown)">
  <metadata
     id="metadata5386">
    <rdf:RDF>
      <cc:Work
         rdf:about="">
        <dc:format>image/svg+xml</dc:format>
        <dc:type
           rdf:resource="http://purl.org/dc/dcmitype/StillImage" />
        <dc:title></dc:title>
      </cc:Work>
    </rdf:RDF>
  </metadata>
  <defs
     id="defs5384" />
  <sodipodi:namedview
     pagecolor="#ffffff"
     bordercolor="#666666"
     borderopacity="1"
     objecttolerance="10"
     gridtolerance="10"
     guidetolerance="10"
     inkscape:pageopacity="0"
     inkscape:pageshadow="2"
     inkscape:window-width="1920"
     inkscape:window-height="1037"
     id="namedview5382"
     showgrid="false"
     inkscape:zoom="0.72540984"
     inkscape:cx="142.17937"
     inkscape:cy="368.3335"
     inkscape:window-x="0"
     inkscape:window-y="20"
     inkscape:window-maximized="0"
     inkscape:current-layer="svg5380" />
  <g
     id="g5354"
     style="fill:#009b76;fill-opacity:1"
     fill="#263238">
    <path
       d="m16 184h-12c-2.207031 0-4-1.792969-4-4s1.792969-4 4-4h12c2.207031 0 4 1.792969 4 4s-1.792969 4-4 4zm0 0"
       id="path5338"
       style="fill:#009b76;fill-opacity:1" />
    <path
       d="m102 184h-72c-2.207031 0-4-1.792969-4-4s1.792969-4 4-4h72c2.207031 0 4 1.792969 4 4s-1.792969 4-4 4zm0 0"
       id="path5340"
       style="fill:#009b76;fill-opacity:1" />
    <path
       d="m458 184h-72c-2.207031 0-4-1.792969-4-4s1.792969-4 4-4h72c2.207031 0 4 1.792969 4 4s-1.792969 4-4 4zm0 0"
       id="path5342"
       style="fill:#009b76;fill-opacity:1" />
    <path
       d="m92 98.144531c-1.023438 0-2.046875-.390625-2.832031-1.167969l-28.289063-28.289062c-1.558594-1.558594-1.558594-4.09375 0-5.65625 1.5625-1.558594 4.097656-1.558594 5.65625 0l28.289063 28.289062c1.558593 1.558594 1.558593 4.09375 0 5.65625-.777344.777344-1.800781 1.167969-2.824219 1.167969zm0 0"
       id="path5344"
       style="fill:#009b76;fill-opacity:1" />
    <path
       d="m396 98.144531c-1.023438 0-2.046875-.390625-2.832031-1.167969-1.558594-1.5625-1.558594-4.097656 0-5.65625l28.28125-28.289062c1.558593-1.558594 4.09375-1.558594 5.65625 0 1.558593 1.5625 1.558593 4.097656 0 5.65625l-28.28125 28.289062c-.777344.777344-1.800781 1.167969-2.824219 1.167969zm0 0"
       id="path5346"
       style="fill:#009b76;fill-opacity:1" />
    <path
       d="m424.289062 298.144531c-1.023437 0-2.050781-.390625-2.832031-1.167969l-28.28125-28.289062c-1.558593-1.558594-1.558593-4.09375 0-5.65625 1.558594-1.558594 4.097657-1.558594 5.65625 0l28.28125 28.289062c1.558594 1.558594 1.558594 4.09375 0 5.65625-.777343.777344-1.800781 1.167969-2.824219 1.167969zm0 0"
       id="path5348"
       style="fill:#009b76;fill-opacity:1" />
    <path
       d="m63.710938 298.144531c-1.023438 0-2.046876-.390625-2.832032-1.167969-1.558594-1.5625-1.558594-4.097656 0-5.65625l28.289063-28.289062c1.558593-1.558594 4.097656-1.558594 5.65625 0 1.558593 1.5625 1.558593 4.097656 0 5.65625l-28.289063 28.289062c-.773437.777344-1.800781 1.167969-2.824218 1.167969zm0 0"
       id="path5350"
       style="fill:#009b76;fill-opacity:1" />
    <path
       d="m484 184h-12c-2.207031 0-4-1.792969-4-4s1.792969-4 4-4h12c2.207031 0 4 1.792969 4 4s-1.792969 4-4 4zm0 0"
       id="path5352"
       style="fill:#009b76;fill-opacity:1" />
  </g>
  <path
     d="m343.152344 236.632812-43.945313-23.96875-127.207031 83.335938v68c0 4.414062 3.585938 8 8 8h112v48h32c22.089844 0 40-17.910156 40-40v-108.257812c0-14.628907-7.992188-28.101563-20.847656-35.109376zm0 0"
     fill="#ffd740"
     id="path5356"
     style="fill:#009b76;fill-opacity:1" />
  <path
     d="m299.214844 212.664062-127.214844 83.335938"
     fill="#ffd740"
     id="path5358" />
  <path
     d="m172 300c-1.304688 0-2.585938-.640625-3.351562-1.808594-1.207032-1.847656-.6875-4.328125 1.160156-5.535156l127.207031-83.335938c1.847656-1.199218 4.328125-.6875 5.535156 1.160157 1.210938 1.847656.6875 4.328125-1.160156 5.535156l-127.199219 83.328125c-.679687.449219-1.4375.65625-2.191406.65625zm0 0"
     id="path5360"
     fill="#263238" />
  <path
     d="m220 424h-56c-24.265625 0-44-19.734375-44-44v-108.257812c0-16.109376 8.792969-30.910157 22.9375-38.621094l65.0625-35.496094v-12.328125c0-2.207031 1.792969-4 4-4s4 1.792969 4 4v14.703125c0 1.464844-.800781 2.808594-2.089844 3.511719l-67.148437 36.632812c-11.578125 6.3125-18.761719 18.414063-18.761719 31.597657v108.257812c0 19.847656 16.152344 36 36 36h56c11.023438 0 20-8.976562 20-20 0-11.03125-8.976562-20-20-20h-40c-6.617188 0-12-5.382812-12-12v-92c0-2.207031 1.792969-4 4-4s4 1.792969 4 4v92c0 2.207031 1.792969 4 4 4h40c15.441406 0 28 12.558594 28 28s-12.558594 28-28 28zm0 0"
     fill="#263238"
     id="path5362" />
  <path
     d="m324 424h-56c-15.441406 0-28-12.558594-28-28s12.558594-28 28-28h44v-96c0-2.207031 1.792969-4 4-4s4 1.792969 4 4v100c0 2.207031-1.792969 4-4 4h-48c-11.023438 0-20 8.976562-20 20 0 11.03125 8.976562 20 20 20h56c19.847656 0 36-16.152344 36-36v-108.257812c0-13.175782-7.191406-25.292969-18.761719-31.605469l-67.148437-36.632813c-1.289063-.6875-2.089844-2.039062-2.089844-3.503906v-14.703125c0-2.207031 1.792969-4 4-4s4 1.792969 4 4v12.328125l65.0625 35.496094c14.152344 7.71875 22.9375 22.519531 22.9375 38.632812v108.246094c0 24.265625-19.734375 44-44 44zm0 0"
     fill="#263238"
     id="path5364" />
  <path
     d="m404 388h-24.640625c-3.902344 27.097656-27.207031 48-55.359375 48h-60c-7.398438 0-14.28125-2.238281-20-6.078125-5.71875 3.839844-12.609375 6.078125-20 6.078125h-60c-28.160156 0-51.457031-20.910156-55.359375-48h-24.640625c-26.511719 0-48 21.488281-48 48s21.488281 48 48 48h320c26.511719 0 48-21.488281 48-48s-21.488281-48-48-48zm0 0"
     fill="#ffd740"
     id="path5366"
     style="fill:#009b76;fill-opacity:1" />
  <path
     d="m404 488h-320c-28.671875 0-52-23.328125-52-52s23.328125-52 52-52h24.640625c2.207031 0 4 1.792969 4 4s-1.792969 4-4 4h-24.640625c-24.265625 0-44 19.734375-44 44s19.734375 44 44 44h320c24.265625 0 44-19.734375 44-44s-19.734375-44-44-44h-24.640625c-2.207031 0-4-1.792969-4-4s1.792969-4 4-4h24.640625c28.671875 0 52 23.328125 52 52s-23.328125 52-52 52zm0 0"
     fill="#263238"
     id="path5368" />
  <path
     d="m244 196c-37.273438 0-69.863281-24.503906-80.425781-60-13.039063-.222656-23.574219-10.902344-23.574219-24s10.535156-23.769531 23.574219-24c10.554687-35.496094 43.152343-60 80.425781-60s69.871094 24.503906 80.425781 60c13.039063.222656 23.574219 10.902344 23.574219 24s-10.535156 23.769531-23.574219 24c-10.5625 35.496094-43.152343 60-80.425781 60zm-77.929688-68.183594c1.875 0 3.90625 1.160156 4.355469 2.945313 8.574219 33.703125 38.832031 57.238281 73.574219 57.238281s65-23.535156 73.566406-57.238281c.496094-1.96875 2.363282-3.25 4.394532-2.984375 1.046874.144531 1.535156.222656 2.039062.222656 8.824219 0 16-7.175781 16-16s-7.175781-16-16-16c-.503906 0-.992188.078125-1.480469.152344-2.03125.289062-4.449219-.9375-4.953125-2.90625-8.566406-33.710938-38.824218-57.246094-73.566406-57.246094s-65 23.535156-73.566406 57.238281c-.496094 1.960938-2.386719 3.1875-4.394532 2.984375-1.046874-.144531-1.535156-.222656-2.039062-.222656-8.824219 0-16 7.175781-16 16s7.175781 16 16 16c.503906 0 .992188-.078125 1.480469-.152344.191406-.023437.390625-.03125.589843-.03125zm0 0"
     fill="#263238"
     id="path5370" />
  <path
     d="m364 456h-240c-24.265625 0-44-19.734375-44-44v-20c0-2.207031 1.792969-4 4-4s4 1.792969 4 4v20c0 19.847656 16.152344 36 36 36h240c2.207031 0 4 1.792969 4 4s-1.792969 4-4 4zm0 0"
     id="path5372"
     fill="#263238" />
  <path
     d="m244 155.976562c-11.273438 0-22.535156-4.289062-31.113281-12.863281-1.558594-1.5625-1.558594-4.097656 0-5.65625 1.5625-1.5625 4.097656-1.5625 5.65625 0 14.042969 14.039063 36.871093 14.039063 50.914062 0 1.558594-1.5625 4.09375-1.5625 5.65625 0 1.558594 1.558594 1.558594 4.09375 0 5.65625-8.578125 8.574219-19.839843 12.863281-31.113281 12.863281zm0 0"
     fill="#263238"
     id="path5374" />
  <path
     d="m292 424c-2.207031 0-4-1.792969-4-4v-48c0-2.207031 1.792969-4 4-4s4 1.792969 4 4v48c0 2.207031-1.785156 4-4 4zm0 0"
     fill="#263238"
     id="path5378" />
  <path
     style="opacity:1;fill:#263238;fill-opacity:1;stroke-width:0.75"
     id="path5991"
     d="m 207.65275,86.470655 c 3.79991,0.2511 7.57084,-0.127665 11.35022,-0.459682 3.18418,-0.322208 6.37966,-0.456375 9.57763,-0.528165 1.65715,-0.266633 0.8374,-0.12942 2.45932,-0.411038 0,0 -12.23366,9.169687 -12.23366,9.169687 v 0 c -1.66783,0.211665 -0.81715,0.12912 -2.55256,0.242348 -3.14757,0.07952 -6.29115,0.254422 -9.4276,0.534915 -3.86088,0.32535 -7.719,0.50541 -11.5949,0.476722 0,0 12.42155,-9.024787 12.42155,-9.024787 z"
     inkscape:connector-curvature="0" />
  <path
     style="opacity:1;fill:#263238;fill-opacity:1;stroke-width:0.75"
     id="path5991-3"
     d="m 271.80532,84.473692 c 3.79991,0.2511 7.57084,-0.127665 11.35022,-0.459682 3.18418,-0.322208 6.37966,-0.456375 9.57763,-0.528165 1.65715,-0.266633 0.8374,-0.12942 2.45932,-0.411038 0,0 -12.23366,9.169683 -12.23366,9.169683 v 0 c -1.66783,0.21167 -0.81715,0.12912 -2.55256,0.24235 -3.14757,0.0795 -6.29115,0.25442 -9.4276,0.53492 -3.86088,0.32535 -7.719,0.50541 -11.5949,0.47672 0,0 12.42155,-9.024788 12.42155,-9.024788 z"
     inkscape:connector-curvature="0" />
</svg>
